<mxfile host="app.diagrams.net" modified="2021-06-21T05:54:12.171Z" agent="5.0 (Macintosh; Intel Mac OS X 10_15_7) AppleWebKit/537.36 (KHTML, like Gecko) Chrome/91.0.4472.106 Safari/537.36" etag="NAtLALhdtwX1JhJ90uGS" version="14.8.0" type="github">
  <diagram id="pJSdXZW5RLaHWPt-oxUb" name="第 1 页">
    <mxGraphModel dx="2253" dy="794" grid="0" gridSize="10" guides="1" tooltips="1" connect="1" arrows="1" fold="1" page="1" pageScale="1" pageWidth="827" pageHeight="1169" math="0" shadow="0">
      <root>
        <mxCell id="0" />
        <mxCell id="1" parent="0" />
        <mxCell id="ArmjkCHneCmOyYuBnzp7-1" value="" style="shape=flexArrow;endArrow=classic;startArrow=classic;html=1;width=20;strokeWidth=2;" edge="1" parent="1">
          <mxGeometry width="100" height="100" relative="1" as="geometry">
            <mxPoint x="-143" y="351" as="sourcePoint" />
            <mxPoint x="979" y="351" as="targetPoint" />
          </mxGeometry>
        </mxCell>
        <mxCell id="ArmjkCHneCmOyYuBnzp7-4" style="edgeStyle=orthogonalEdgeStyle;rounded=0;orthogonalLoop=1;jettySize=auto;html=1;strokeWidth=2;startArrow=classic;startFill=1;" edge="1" parent="1" source="ArmjkCHneCmOyYuBnzp7-2">
          <mxGeometry relative="1" as="geometry">
            <mxPoint x="-36.5" y="345" as="targetPoint" />
          </mxGeometry>
        </mxCell>
        <mxCell id="ArmjkCHneCmOyYuBnzp7-2" value="网卡1" style="rounded=0;whiteSpace=wrap;html=1;align=left;" vertex="1" parent="1">
          <mxGeometry x="-102" y="461" width="131" height="66" as="geometry" />
        </mxCell>
        <mxCell id="ArmjkCHneCmOyYuBnzp7-3" value="buffer" style="ellipse;whiteSpace=wrap;html=1;aspect=fixed;" vertex="1" parent="1">
          <mxGeometry x="-30" y="469" width="45" height="45" as="geometry" />
        </mxCell>
        <mxCell id="ArmjkCHneCmOyYuBnzp7-6" style="edgeStyle=orthogonalEdgeStyle;rounded=0;orthogonalLoop=1;jettySize=auto;html=1;strokeWidth=2;startArrow=classic;startFill=1;" edge="1" parent="1" source="ArmjkCHneCmOyYuBnzp7-5">
          <mxGeometry relative="1" as="geometry">
            <mxPoint x="180.5" y="358" as="targetPoint" />
          </mxGeometry>
        </mxCell>
        <mxCell id="ArmjkCHneCmOyYuBnzp7-5" value="RAM 主存储器" style="rounded=0;whiteSpace=wrap;html=1;align=left;" vertex="1" parent="1">
          <mxGeometry x="56" y="200" width="249" height="60" as="geometry" />
        </mxCell>
        <mxCell id="ArmjkCHneCmOyYuBnzp7-7" value="CPU" style="whiteSpace=wrap;html=1;aspect=fixed;align=center;verticalAlign=top;" vertex="1" parent="1">
          <mxGeometry x="380" y="28" width="172" height="172" as="geometry" />
        </mxCell>
        <mxCell id="ArmjkCHneCmOyYuBnzp7-8" style="edgeStyle=orthogonalEdgeStyle;rounded=0;orthogonalLoop=1;jettySize=auto;html=1;strokeWidth=2;startArrow=classic;startFill=1;" edge="1" parent="1" source="ArmjkCHneCmOyYuBnzp7-9">
          <mxGeometry relative="1" as="geometry">
            <mxPoint x="112.5" y="345" as="targetPoint" />
          </mxGeometry>
        </mxCell>
        <mxCell id="ArmjkCHneCmOyYuBnzp7-9" value="网卡2" style="rounded=0;whiteSpace=wrap;html=1;align=left;" vertex="1" parent="1">
          <mxGeometry x="47" y="461" width="131" height="66" as="geometry" />
        </mxCell>
        <mxCell id="ArmjkCHneCmOyYuBnzp7-10" value="buffer" style="ellipse;whiteSpace=wrap;html=1;aspect=fixed;" vertex="1" parent="1">
          <mxGeometry x="119" y="469" width="45" height="45" as="geometry" />
        </mxCell>
        <mxCell id="ArmjkCHneCmOyYuBnzp7-14" style="edgeStyle=orthogonalEdgeStyle;rounded=0;orthogonalLoop=1;jettySize=auto;html=1;entryX=0.5;entryY=0;entryDx=0;entryDy=0;startArrow=classic;startFill=1;strokeWidth=2;" edge="1" parent="1" source="ArmjkCHneCmOyYuBnzp7-11" target="ArmjkCHneCmOyYuBnzp7-13">
          <mxGeometry relative="1" as="geometry" />
        </mxCell>
        <mxCell id="ArmjkCHneCmOyYuBnzp7-11" value="L1" style="rounded=0;whiteSpace=wrap;html=1;align=left;" vertex="1" parent="1">
          <mxGeometry x="404" y="75" width="120" height="33" as="geometry" />
        </mxCell>
        <mxCell id="ArmjkCHneCmOyYuBnzp7-21" style="edgeStyle=orthogonalEdgeStyle;rounded=0;orthogonalLoop=1;jettySize=auto;html=1;entryX=0.206;entryY=0;entryDx=0;entryDy=0;entryPerimeter=0;startArrow=classic;startFill=1;strokeWidth=2;" edge="1" parent="1" source="ArmjkCHneCmOyYuBnzp7-13" target="ArmjkCHneCmOyYuBnzp7-15">
          <mxGeometry relative="1" as="geometry" />
        </mxCell>
        <mxCell id="ArmjkCHneCmOyYuBnzp7-13" value="L1" style="rounded=0;whiteSpace=wrap;html=1;align=left;" vertex="1" parent="1">
          <mxGeometry x="404" y="145" width="120" height="33" as="geometry" />
        </mxCell>
        <mxCell id="ArmjkCHneCmOyYuBnzp7-27" style="edgeStyle=orthogonalEdgeStyle;rounded=0;orthogonalLoop=1;jettySize=auto;html=1;startArrow=classic;startFill=1;strokeWidth=2;" edge="1" parent="1" source="ArmjkCHneCmOyYuBnzp7-15">
          <mxGeometry relative="1" as="geometry">
            <mxPoint x="584" y="356" as="targetPoint" />
          </mxGeometry>
        </mxCell>
        <mxCell id="ArmjkCHneCmOyYuBnzp7-15" value="L3" style="rounded=0;whiteSpace=wrap;html=1;align=center;verticalAlign=top;" vertex="1" parent="1">
          <mxGeometry x="380" y="218" width="408" height="41" as="geometry" />
        </mxCell>
        <mxCell id="ArmjkCHneCmOyYuBnzp7-22" value="CPU" style="whiteSpace=wrap;html=1;aspect=fixed;align=center;verticalAlign=top;" vertex="1" parent="1">
          <mxGeometry x="611" y="28" width="172" height="172" as="geometry" />
        </mxCell>
        <mxCell id="ArmjkCHneCmOyYuBnzp7-23" style="edgeStyle=orthogonalEdgeStyle;rounded=0;orthogonalLoop=1;jettySize=auto;html=1;entryX=0.5;entryY=0;entryDx=0;entryDy=0;startArrow=classic;startFill=1;strokeWidth=2;" edge="1" parent="1" source="ArmjkCHneCmOyYuBnzp7-24" target="ArmjkCHneCmOyYuBnzp7-26">
          <mxGeometry relative="1" as="geometry" />
        </mxCell>
        <mxCell id="ArmjkCHneCmOyYuBnzp7-24" value="L1" style="rounded=0;whiteSpace=wrap;html=1;align=left;" vertex="1" parent="1">
          <mxGeometry x="635" y="75" width="120" height="33" as="geometry" />
        </mxCell>
        <mxCell id="ArmjkCHneCmOyYuBnzp7-25" style="edgeStyle=orthogonalEdgeStyle;rounded=0;orthogonalLoop=1;jettySize=auto;html=1;entryX=0.206;entryY=0;entryDx=0;entryDy=0;entryPerimeter=0;startArrow=classic;startFill=1;strokeWidth=2;" edge="1" parent="1" source="ArmjkCHneCmOyYuBnzp7-26">
          <mxGeometry relative="1" as="geometry">
            <mxPoint x="695.0479999999998" y="218" as="targetPoint" />
          </mxGeometry>
        </mxCell>
        <mxCell id="ArmjkCHneCmOyYuBnzp7-26" value="L1" style="rounded=0;whiteSpace=wrap;html=1;align=left;" vertex="1" parent="1">
          <mxGeometry x="635" y="145" width="120" height="33" as="geometry" />
        </mxCell>
      </root>
    </mxGraphModel>
  </diagram>
</mxfile>
